# xmcd
#
# Track frame offsets:
#	150
#	17242
#	36393
#	54326
#	76853
#	94435
#	112656
#	129747
#	148906
#	166840
#	189562
#	207144
#
# Disc length: 3007 seconds
#
# Revision: 1
# Processed by: cddbd v1.5.2PL0 Copyright (c) Steve Scherf et al.
# Submitted via: audiograbber 1.83.01
#
DISCID=a10bbd0c
DTITLE=Herndon, Ty - CB20256
DYEAR=1900
DGENRE=Karaoke
TTITLE0=Steam w/vocal
TTITLE1=Living In A Moment w/vocal
TTITLE2=Hands Of A Working Man, The w/vocal
TTITLE3=You Can Leave Your Hat On w/vocal
TTITLE4=Man Holdin' On, A w/vocal
TTITLE5=She Wants To Be Wanted Again w/vocal
TTITLE6=Steam
TTITLE7=Living In A Moment
TTITLE8=Hands Of A Working Man, The
TTITLE9=You Can Leave Your Hat On
TTITLE10=Man Holdin' On, A
TTITLE11=She Wants To Be Wanted Again
EXTD=
EXTT0=
EXTT1=
EXTT2=
EXTT3=
EXTT4=
EXTT5=
EXTT6=
EXTT7=
EXTT8=
EXTT9=
EXTT10=
EXTT11=
PLAYORDER=
